<svg width="1215" height="333" viewBox="0 0 1215 333" fill="none" xmlns="http://www.w3.org/2000/svg">
<path d="M241.927 262.318C244.7 262.992 247.473 263.161 250.33 263.245C251.255 263.245 252.263 263.245 253.187 263.245C254.028 263.245 254.868 263.245 255.624 263.245H258.145C280.75 263.245 297.808 246.143 297.808 223.482C297.808 200.82 285.035 183.718 268.061 183.718C268.061 183.718 268.061 183.718 267.977 183.718C267.893 183.718 267.893 183.718 267.809 183.718C259.574 183.718 252.935 190.374 252.935 198.629C252.935 203.684 254.784 206.633 256.213 208.823C257.305 210.508 257.893 211.519 257.893 213.541C257.893 221.375 251.507 223.482 248.062 223.482C241.507 223.397 238.65 218.848 234.197 210.676C229.323 201.831 223.357 190.963 208.483 189.026V177.99C208.987 177.905 209.407 177.821 209.828 177.737C211.592 177.484 213.273 177.147 214.953 176.726C215.71 176.557 216.55 176.305 217.306 176.052C218.735 175.631 220.163 175.294 221.508 174.788C222.936 174.283 224.365 173.609 225.793 173.019C226.466 172.766 227.054 172.514 227.726 172.177C247.978 162.404 261.338 142.86 266.044 121.63C265.624 121.63 265.204 121.714 264.784 121.714C261.759 121.714 258.733 121.546 255.708 121.209C249.322 146.735 228.903 168.807 198.315 168.807H188.4V178.748H188.568H198.315V198.629H198.483H203.273C215.962 198.629 220.247 206.464 225.205 215.478C229.827 223.903 235.037 233.422 247.894 233.422H247.978H248.062C257.641 233.422 267.893 226.43 267.893 213.541C267.893 208.57 266.044 205.622 264.616 203.516C263.523 201.747 262.851 200.82 262.851 198.629C262.851 195.934 265.036 193.659 267.809 193.659C279.069 193.743 287.472 206.548 287.472 223.482C287.472 240.499 274.699 253.304 257.725 253.304C257.725 253.304 251.255 253.304 249.406 253.304C247.557 253.22 245.793 253.051 244.196 252.63C244.112 252.63 244.112 252.63 244.028 252.63L241.927 262.318ZM94.4534 293.152C94.4534 300.565 95.966 306.884 98.4869 312.191C98.4869 312.191 99.7474 314.634 99.8314 314.803C101.68 318.004 103.949 320.7 106.554 323.058C106.806 323.311 107.058 323.48 107.31 323.732C109.747 325.839 112.436 327.523 115.293 328.871C115.797 329.124 116.301 329.377 116.806 329.545C117.646 329.882 118.402 330.219 119.327 330.556C119.999 330.809 120.671 330.977 121.343 331.146C122.436 331.483 123.444 331.736 124.536 331.988C125.629 332.241 126.637 332.41 127.73 332.578C128.318 332.662 128.906 332.747 129.494 332.747C130.923 332.915 132.435 332.999 133.864 332.999C133.948 332.999 133.948 332.999 134.032 332.999C134.116 332.999 134.116 332.999 134.2 332.999C142.435 332.999 149.073 326.344 149.073 318.088C149.073 311.349 144.62 307.642 141.006 304.609C137.225 301.408 134.2 298.965 134.2 293.236C134.2 288.687 138.065 283.801 142.519 278.156C148.989 269.9 156.888 259.875 158.653 244.88C161.51 245.891 165.375 247.575 167.728 250.608C168.905 252.125 171.846 256.505 173.358 264.846L174.199 272.428C174.283 273.186 174.283 273.86 174.283 274.618C174.283 278.072 174.199 286.159 174.199 286.159C176.72 324.491 201.677 331.904 224.113 332.915C225.373 332.999 226.718 332.999 227.978 332.999C236.213 333.084 243.272 326.681 243.44 318.509C243.692 310.085 236.886 303.177 228.566 303.177C217.558 303.177 213.693 284.39 213.693 268.384C213.693 247.744 206.466 208.739 178.988 208.739C178.904 208.739 178.904 208.739 178.82 208.739V218.68C199.072 218.68 203.609 255.494 203.609 268.384C203.609 296.353 212.853 313.033 228.314 313.118C231.003 313.118 233.272 315.224 233.44 317.835C233.608 320.7 231.339 323.058 228.482 323.058C200.416 322.974 185.963 309.916 184.198 282.958C184.534 278.325 185.627 253.978 175.039 243.363C175.039 243.363 169.745 236.203 154.956 233.591L149.326 232.833H149.157V238.477C149.157 245.469 145.124 256.674 145.124 256.674C142.351 262.487 138.486 267.457 134.956 272.006C129.578 278.83 124.536 285.317 124.536 293.236C124.536 297.785 127.225 304.103 127.225 304.103C129.326 307.726 132.267 310.253 134.704 312.275C138.57 315.476 139.662 316.656 139.074 319.267C138.57 321.542 136.553 323.058 134.284 323.058C134.284 323.058 104.705 321.121 104.705 293.236C104.705 279.42 109.327 270.237 114.117 260.465C119.242 250.187 124.536 239.488 124.536 223.65H114.621C114.621 237.213 110.083 246.396 105.293 256.084C99.7474 266.278 94.4534 277.061 94.4534 293.152ZM153.947 143.955C159.409 143.955 163.863 139.49 163.863 134.014C163.863 128.538 159.409 124.073 153.947 124.073H153.863H153.779C148.317 124.073 143.864 128.538 143.864 134.014C143.864 139.49 148.317 143.955 153.779 143.955H153.863H153.947ZM124.2 143.955C129.662 143.955 134.116 139.49 134.116 134.014C134.116 128.538 129.662 124.073 124.2 124.073H124.116H124.032C118.57 124.073 114.117 128.538 114.117 134.014C114.117 139.49 118.57 143.955 124.032 143.955H124.116C124.116 143.955 124.116 143.955 124.2 143.955ZM0.00292969 283.211C0.00292969 319.436 33.4471 332.915 54.5389 332.915C54.6229 332.915 54.6229 332.915 54.7069 332.915C62.9419 332.915 69.5803 326.26 69.5803 318.004C69.5803 307.558 61.3454 302.671 54.7069 298.796C48.5727 295.174 44.7913 292.731 44.7913 288.181C44.7913 287.592 46.724 281.863 57.3959 277.061C57.3959 277.061 64.3704 273.691 70.9248 271.248L68.3199 261.644C61.9336 263.413 50.0852 267.373 42.3544 274.112C37.4806 277.567 34.7076 281.526 34.7076 288.097C34.7076 298.543 42.9426 303.43 49.581 307.305C55.7153 310.927 59.4967 313.37 59.4967 317.92C59.4967 320.7 57.3119 322.89 54.5389 322.89C42.0183 322.806 10.0866 315.645 10.0866 283.127C10.0866 259.033 30.9262 251.367 52.9423 243.279C74.7062 235.276 99.3272 226.177 99.3272 198.629H89.4956C89.4956 219.269 71.0089 226.093 49.581 234.012C47.6483 234.686 45.7156 235.444 43.7829 236.202V236.118C22.103 244.29 0.00292969 254.736 0.00292969 283.211ZM185.039 35.1953C99.4113 43.2828 91.7645 128.285 89.3276 158.361C87.899 161.141 75.8827 168.807 59.4967 168.807C58.3202 168.807 57.2278 168.807 56.2195 168.723C39.8335 167.88 39.8335 161.393 39.8335 158.866C39.8335 152.042 45.8837 149.431 55.7993 145.977C64.1184 143.112 74.5382 139.49 74.5382 129.044C74.5382 120.788 67.8997 114.132 59.6647 114.132H59.5807H59.4967C22.187 114.132 0.00292969 130.897 0.00292969 158.866C0.00292969 190.879 17.9855 204.19 36.2202 209.666C36.2202 209.666 36.2202 209.666 36.2202 209.581C49.2449 213.541 62.4377 213.541 69.5803 213.541V203.6C41.8502 203.6 10.0866 198.545 10.0866 158.866C10.0866 136.794 28.1532 124.073 59.5807 124.073C62.2697 124.073 64.5385 126.348 64.5385 129.044C64.5385 132.161 60.0009 134.014 52.4381 136.626C42.8586 139.911 29.7498 144.545 29.7498 158.95C29.7498 168.049 34.8757 178.832 59.4967 178.832C59.5807 178.832 59.5807 178.832 59.6647 178.832C79.3279 178.832 99.3272 168.807 99.3272 159.372C103.193 113.206 116.301 52.8024 184.03 45.3046C184.114 41.8506 184.534 38.4808 185.039 35.1953Z" fill="white"/>
<path d="M209.305 91.9787C198.143 79.8891 191.896 64.6092 192.396 50.0849C192.396 50.0009 192.396 49.833 192.479 49.749L192.563 49.4132L192.729 49.1613C192.812 49.0774 192.812 48.9934 192.896 48.9095L204.057 38.415L205.473 41.6053L195.561 50.9244V51.5121C195.561 64.7771 201.392 78.7137 211.637 89.7958L211.804 90.0477L212.054 90.2995C222.299 101.382 235.71 108.182 248.787 109.106H249.37L260.199 98.863L263.197 100.542L251.036 111.96C250.953 112.044 250.87 112.128 250.786 112.128L250.536 112.296C250.453 112.296 250.37 112.38 250.287 112.38L250.12 112.464C250.12 112.464 249.953 112.464 249.87 112.464C235.46 111.876 220.8 104.572 209.555 92.4824L209.305 92.2305V91.9787Z" fill="white"/>
<path d="M209.305 91.9787C198.143 79.8891 191.896 64.6092 192.396 50.0849C192.396 50.0009 192.396 49.833 192.479 49.749L192.563 49.4132L192.729 49.1613C192.812 49.0774 192.812 48.9934 192.896 48.9095L204.057 38.415L205.473 41.6053L195.561 50.9244V51.5121C195.561 64.7771 201.392 78.7137 211.637 89.7958L211.804 90.0477L212.054 90.2995C222.299 101.382 235.71 108.182 248.787 109.106H249.37L260.199 98.863L263.197 100.542L251.036 111.96C250.953 112.044 250.87 112.128 250.786 112.128L250.536 112.296C250.453 112.296 250.37 112.38 250.287 112.38L250.12 112.464C250.12 112.464 249.953 112.464 249.87 112.464C235.46 111.876 220.8 104.572 209.555 92.4824L209.305 92.2305V91.9787Z" fill="white" stroke="white" stroke-width="5" stroke-miterlimit="10"/>
<path d="M202.413 8.51368L230.484 69.2474L290.092 102.054L262.021 41.32L202.413 8.51368ZM281.299 100.96L228.455 71.8551C228.286 71.771 228.201 71.6869 228.032 71.5186C227.947 71.3504 227.778 71.2663 227.778 71.098L197.34 5.31718C197.086 4.72835 197.171 4.05539 197.594 3.55068L197.932 3.29831C198.524 2.96183 199.2 2.87773 199.707 3.21421L264.135 38.7123C264.304 38.7964 264.389 38.8805 264.558 39.0488C264.642 39.217 264.811 39.3011 264.811 39.4694L295.25 105.25C295.503 105.839 295.419 106.512 294.996 107.017L294.911 107.101C294.32 107.69 293.474 107.774 292.882 107.437L284.343 102.727L281.299 100.96Z" fill="white"/>
<path d="M202.413 8.51368L230.484 69.2474L290.092 102.054L262.021 41.32L202.413 8.51368ZM281.299 100.96L228.455 71.8551C228.286 71.771 228.201 71.6869 228.032 71.5186C227.947 71.3504 227.778 71.2663 227.778 71.098L197.34 5.31718C197.086 4.72835 197.171 4.05539 197.594 3.55068L197.932 3.29831C198.524 2.96183 199.2 2.87773 199.707 3.21421L264.135 38.7123C264.304 38.7964 264.389 38.8805 264.558 39.0488C264.642 39.217 264.811 39.3011 264.811 39.4694L295.25 105.25C295.503 105.839 295.419 106.512 294.996 107.017L294.911 107.101C294.32 107.69 293.474 107.774 292.882 107.437L284.343 102.727L281.299 100.96Z" fill="white" stroke="white" stroke-width="5" stroke-miterlimit="10"/>
<path d="M351.053 287.675V113.875H381.578V135.325C386.345 127.625 392.486 121.667 400.003 117.45C407.703 113.233 415.861 111.125 424.478 111.125C443.178 111.125 458.486 118 470.403 131.75C482.503 145.317 488.553 162.092 488.553 182.075C488.553 201.875 482.503 218.65 470.403 232.4C458.486 245.967 443.178 252.75 424.478 252.75C415.678 252.75 407.52 250.733 400.003 246.7C392.486 242.483 386.345 236.525 381.578 228.825V287.675H351.053ZM392.028 152.375C385.061 160.258 381.578 170.158 381.578 182.075C381.578 193.992 385.061 203.892 392.028 211.775C399.178 219.475 408.253 223.325 419.253 223.325C430.436 223.325 439.603 219.475 446.753 211.775C453.903 203.892 457.478 193.992 457.478 182.075C457.478 170.158 453.903 160.258 446.753 152.375C439.603 144.492 430.436 140.55 419.253 140.55C408.253 140.55 399.178 144.492 392.028 152.375ZM508.802 182.075C508.802 162.458 515.86 145.775 529.977 132.025C544.094 118.092 561.144 111.125 581.127 111.125C601.11 111.125 618.16 118.092 632.277 132.025C646.394 145.775 653.452 162.458 653.452 182.075C653.452 201.508 646.394 218.192 632.277 232.125C618.16 245.875 601.11 252.75 581.127 252.75C561.144 252.75 544.094 245.875 529.977 232.125C515.86 218.192 508.802 201.508 508.802 182.075ZM539.877 182.075C539.877 193.625 543.91 203.433 551.977 211.5C560.044 219.383 569.76 223.325 581.127 223.325C592.494 223.325 602.21 219.383 610.277 211.5C618.344 203.433 622.377 193.625 622.377 182.075C622.377 170.708 618.344 160.992 610.277 152.925C602.21 144.675 592.494 140.55 581.127 140.55C569.76 140.55 560.044 144.675 551.977 152.925C543.91 160.992 539.877 170.708 539.877 182.075ZM673.695 182.075C673.695 162.458 680.753 145.775 694.87 132.025C708.986 118.092 726.036 111.125 746.02 111.125C766.003 111.125 783.053 118.092 797.17 132.025C811.286 145.775 818.345 162.458 818.345 182.075C818.345 201.508 811.286 218.192 797.17 232.125C783.053 245.875 766.003 252.75 746.02 252.75C726.036 252.75 708.986 245.875 694.87 232.125C680.753 218.192 673.695 201.508 673.695 182.075ZM704.77 182.075C704.77 193.625 708.803 203.433 716.87 211.5C724.936 219.383 734.653 223.325 746.02 223.325C757.386 223.325 767.103 219.383 775.17 211.5C783.236 203.433 787.27 193.625 787.27 182.075C787.27 170.708 783.236 160.992 775.17 152.925C767.103 144.675 757.386 140.55 746.02 140.55C734.653 140.55 724.936 144.675 716.87 152.925C708.803 160.992 704.77 170.708 704.77 182.075ZM842.712 193.9V113.875H873.237V188.4C873.237 200.133 875.437 208.933 879.837 214.8C884.237 220.483 891.662 223.325 902.112 223.325C912.379 223.325 920.445 219.933 926.312 213.15C932.179 206.367 935.112 196.65 935.112 184V113.875H965.637V250H935.112V231.025C925.029 245.508 911.004 252.75 893.037 252.75C875.437 252.75 862.604 247.158 854.537 235.975C846.654 224.792 842.712 210.767 842.712 193.9ZM999.613 250V69.05H1030.14V250H999.613ZM1064.33 287.675V113.875H1094.86V135.325C1099.63 127.625 1105.77 121.667 1113.28 117.45C1120.98 113.233 1129.14 111.125 1137.76 111.125C1156.46 111.125 1171.77 118 1183.68 131.75C1195.78 145.317 1201.83 162.092 1201.83 182.075C1201.83 201.875 1195.78 218.65 1183.68 232.4C1171.77 245.967 1156.46 252.75 1137.76 252.75C1128.96 252.75 1120.8 250.733 1113.28 246.7C1105.77 242.483 1099.63 236.525 1094.86 228.825V287.675H1064.33ZM1105.31 152.375C1098.34 160.258 1094.86 170.158 1094.86 182.075C1094.86 193.992 1098.34 203.892 1105.31 211.775C1112.46 219.475 1121.53 223.325 1132.53 223.325C1143.72 223.325 1152.88 219.475 1160.03 211.775C1167.18 203.892 1170.76 193.992 1170.76 182.075C1170.76 170.158 1167.18 160.258 1160.03 152.375C1152.88 144.492 1143.72 140.55 1132.53 140.55C1121.53 140.55 1112.46 144.492 1105.31 152.375Z" fill="white"/>
</svg>
