<svg width="1214" height="333" viewBox="0 0 1214 333" fill="none" xmlns="http://www.w3.org/2000/svg">
<path d="M241.924 262.318C244.697 262.992 247.47 263.161 250.328 263.245C251.252 263.245 252.26 263.245 253.185 263.245C254.025 263.245 254.865 263.245 255.621 263.245H258.142C280.747 263.245 297.805 246.143 297.805 223.482C297.805 200.82 285.032 183.718 268.058 183.718C268.058 183.718 268.058 183.718 267.974 183.718C267.89 183.718 267.89 183.718 267.806 183.718C259.571 183.718 252.932 190.374 252.932 198.629C252.932 203.684 254.781 206.633 256.21 208.823C257.302 210.508 257.89 211.519 257.89 213.541C257.89 221.375 251.504 223.482 248.059 223.482C241.504 223.397 238.647 218.848 234.194 210.676C229.32 201.831 223.354 190.963 208.48 189.026V177.99C208.984 177.905 209.405 177.821 209.825 177.737C211.589 177.484 213.27 177.147 214.951 176.726C215.707 176.557 216.547 176.305 217.303 176.052C218.732 175.631 220.16 175.294 221.505 174.788C222.933 174.283 224.362 173.609 225.791 173.019C226.463 172.766 227.051 172.514 227.723 172.177C247.975 162.404 261.335 142.86 266.041 121.63C265.621 121.63 265.201 121.714 264.781 121.714C261.756 121.714 258.731 121.546 255.705 121.209C249.319 146.735 228.9 168.807 198.312 168.807H188.397V178.748H188.565H198.312V198.629H198.481H203.27C215.959 198.629 220.244 206.464 225.202 215.478C229.824 223.903 235.034 233.422 247.891 233.422H247.975H248.059C257.638 233.422 267.89 226.43 267.89 213.541C267.89 208.57 266.041 205.622 264.613 203.516C263.52 201.747 262.848 200.82 262.848 198.629C262.848 195.934 265.033 193.659 267.806 193.659C279.066 193.743 287.469 206.548 287.469 223.482C287.469 240.499 274.696 253.304 257.722 253.304C257.722 253.304 251.252 253.304 249.403 253.304C247.554 253.22 245.79 253.051 244.193 252.63C244.109 252.63 244.109 252.63 244.025 252.63L241.924 262.318ZM94.4505 293.152C94.4505 300.565 95.9631 306.884 98.484 312.191C98.484 312.191 99.7444 314.634 99.8285 314.803C101.677 318.004 103.946 320.7 106.551 323.058C106.803 323.311 107.055 323.48 107.307 323.732C109.744 325.839 112.433 327.523 115.29 328.871C115.794 329.124 116.299 329.377 116.803 329.545C117.643 329.882 118.399 330.219 119.324 330.556C119.996 330.809 120.668 330.977 121.34 331.146C122.433 331.483 123.441 331.736 124.534 331.988C125.626 332.241 126.634 332.41 127.727 332.578C128.315 332.662 128.903 332.747 129.491 332.747C130.92 332.915 132.432 332.999 133.861 332.999C133.945 332.999 133.945 332.999 134.029 332.999C134.113 332.999 134.113 332.999 134.197 332.999C142.432 332.999 149.071 326.344 149.071 318.088C149.071 311.349 144.617 307.642 141.004 304.609C137.222 301.408 134.197 298.965 134.197 293.236C134.197 288.687 138.062 283.801 142.516 278.156C148.986 269.9 156.885 259.875 158.65 244.88C161.507 245.891 165.372 247.575 167.725 250.608C168.902 252.125 171.843 256.505 173.355 264.846L174.196 272.428C174.28 273.186 174.28 273.86 174.28 274.618C174.28 278.072 174.196 286.159 174.196 286.159C176.717 324.491 201.674 331.904 224.11 332.915C225.37 332.999 226.715 332.999 227.975 332.999C236.21 333.084 243.269 326.681 243.437 318.509C243.689 310.085 236.883 303.177 228.564 303.177C217.556 303.177 213.69 284.39 213.69 268.384C213.69 247.744 206.463 208.739 178.985 208.739C178.901 208.739 178.901 208.739 178.817 208.739V218.68C199.069 218.68 203.606 255.494 203.606 268.384C203.606 296.353 212.85 313.033 228.311 313.118C231 313.118 233.269 315.224 233.437 317.835C233.605 320.7 231.337 323.058 228.48 323.058C200.413 322.974 185.96 309.916 184.195 282.958C184.531 278.325 185.624 253.978 175.036 243.363C175.036 243.363 169.742 236.203 154.953 233.591L149.323 232.833H149.155V238.477C149.155 245.469 145.121 256.674 145.121 256.674C142.348 262.487 138.483 267.457 134.953 272.006C129.575 278.83 124.534 285.317 124.534 293.236C124.534 297.785 127.222 304.103 127.222 304.103C129.323 307.726 132.264 310.253 134.701 312.275C138.567 315.476 139.659 316.656 139.071 319.267C138.567 321.542 136.55 323.058 134.281 323.058C134.281 323.058 104.702 321.121 104.702 293.236C104.702 279.42 109.324 270.237 114.114 260.465C119.24 250.187 124.534 239.488 124.534 223.65H114.618C114.618 237.213 110.08 246.396 105.29 256.084C99.7444 266.278 94.4505 277.061 94.4505 293.152ZM153.944 143.955C159.406 143.955 163.86 139.49 163.86 134.014C163.86 128.538 159.406 124.073 153.944 124.073H153.86H153.776C148.314 124.073 143.861 128.538 143.861 134.014C143.861 139.49 148.314 143.955 153.776 143.955H153.86H153.944ZM124.197 143.955C129.659 143.955 134.113 139.49 134.113 134.014C134.113 128.538 129.659 124.073 124.197 124.073H124.113H124.029C118.567 124.073 114.114 128.538 114.114 134.014C114.114 139.49 118.567 143.955 124.029 143.955H124.113C124.113 143.955 124.113 143.955 124.197 143.955ZM0 283.211C0 319.436 33.4442 332.915 54.5359 332.915C54.62 332.915 54.62 332.915 54.704 332.915C62.939 332.915 69.5774 326.26 69.5774 318.004C69.5774 307.558 61.3424 302.671 54.704 298.796C48.5698 295.174 44.7884 292.731 44.7884 288.181C44.7884 287.592 46.7211 281.863 57.393 277.061C57.393 277.061 64.3675 273.691 70.9219 271.248L68.317 261.644C61.9306 263.413 50.0823 267.373 42.3515 274.112C37.4777 277.567 34.7047 281.526 34.7047 288.097C34.7047 298.543 42.9397 303.43 49.5781 307.305C55.7124 310.927 59.4937 313.37 59.4937 317.92C59.4937 320.7 57.3089 322.89 54.5359 322.89C42.0154 322.806 10.0837 315.645 10.0837 283.127C10.0837 259.033 30.9233 251.367 52.9393 243.279C74.7033 235.276 99.3243 226.177 99.3243 198.629H89.4927C89.4927 219.269 71.006 226.093 49.5781 234.012C47.6454 234.686 45.7127 235.444 43.78 236.202V236.118C22.1001 244.29 0 254.736 0 283.211ZM185.036 35.1953C99.4083 43.2828 91.7615 128.285 89.3246 158.361C87.8961 161.141 75.8797 168.807 59.4937 168.807C58.3173 168.807 57.2249 168.807 56.2165 168.723C39.8306 167.88 39.8306 161.393 39.8306 158.866C39.8306 152.042 45.8808 149.431 55.7964 145.977C64.1154 143.112 74.5353 139.49 74.5353 129.044C74.5353 120.788 67.8968 114.132 59.6618 114.132H59.5778H59.4937C22.1841 114.132 0 130.897 0 158.866C0 190.879 17.9826 204.19 36.2172 209.666C36.2172 209.666 36.2172 209.666 36.2172 209.581C49.242 213.541 62.4348 213.541 69.5774 213.541V203.6C41.8473 203.6 10.0837 198.545 10.0837 158.866C10.0837 136.794 28.1503 124.073 59.5778 124.073C62.2668 124.073 64.5356 126.348 64.5356 129.044C64.5356 132.161 59.9979 134.014 52.4352 136.626C42.8557 139.911 29.7469 144.545 29.7469 158.95C29.7469 168.049 34.8727 178.832 59.4937 178.832C59.5778 178.832 59.5778 178.832 59.6618 178.832C79.325 178.832 99.3243 168.807 99.3243 159.372C103.19 113.206 116.299 52.8024 184.027 45.3046C184.111 41.8506 184.531 38.4808 185.036 35.1953Z" fill="#EF7C68"/>
<path d="M209.303 91.9787C198.141 79.8891 191.894 64.6092 192.394 50.0849C192.394 50.0009 192.394 49.833 192.477 49.749L192.561 49.4132L192.727 49.1613C192.811 49.0774 192.811 48.9934 192.894 48.9095L204.055 38.415L205.472 41.6053L195.559 50.9244V51.5121C195.559 64.7771 201.39 78.7137 211.635 89.7958L211.802 90.0477L212.052 90.2995C222.297 101.382 235.708 108.182 248.785 109.106H249.368L260.197 98.863L263.195 100.542L251.034 111.96C250.951 112.044 250.868 112.128 250.784 112.128L250.535 112.296C250.451 112.296 250.368 112.38 250.285 112.38L250.118 112.464C250.118 112.464 249.951 112.464 249.868 112.464C235.458 111.876 220.798 104.572 209.553 92.4824L209.303 92.2305V91.9787Z" fill="#364454"/>
<path d="M209.303 91.9787C198.141 79.8891 191.894 64.6092 192.394 50.0849C192.394 50.0009 192.394 49.833 192.477 49.749L192.561 49.4132L192.727 49.1613C192.811 49.0774 192.811 48.9934 192.894 48.9095L204.055 38.415L205.472 41.6053L195.559 50.9244V51.5121C195.559 64.7771 201.39 78.7137 211.635 89.7958L211.802 90.0477L212.052 90.2995C222.297 101.382 235.708 108.182 248.785 109.106H249.368L260.197 98.863L263.195 100.542L251.034 111.96C250.951 112.044 250.868 112.128 250.784 112.128L250.535 112.296C250.451 112.296 250.368 112.38 250.285 112.38L250.118 112.464C250.118 112.464 249.951 112.464 249.868 112.464C235.458 111.876 220.798 104.572 209.553 92.4824L209.303 92.2305V91.9787Z" stroke="#364454" stroke-width="5" stroke-miterlimit="10"/>
<path d="M202.411 8.51368L230.482 69.2474L290.09 102.054L262.019 41.32L202.411 8.51368ZM281.297 100.96L228.453 71.8551C228.284 71.771 228.199 71.6869 228.03 71.5186C227.945 71.3504 227.776 71.2663 227.776 71.098L197.338 5.31718C197.084 4.72835 197.169 4.05539 197.592 3.55068L197.93 3.29831C198.522 2.96183 199.198 2.87773 199.705 3.21421L264.133 38.7123C264.302 38.7964 264.387 38.8805 264.556 39.0488C264.64 39.217 264.809 39.3011 264.809 39.4694L295.248 105.25C295.501 105.839 295.417 106.512 294.994 107.017L294.91 107.101C294.318 107.69 293.472 107.774 292.88 107.437L284.341 102.727L281.297 100.96Z" fill="#364454"/>
<path d="M202.411 8.51368L230.482 69.2474L290.09 102.054L262.019 41.32L202.411 8.51368ZM281.297 100.96L228.453 71.8551C228.284 71.771 228.199 71.6869 228.03 71.5186C227.945 71.3504 227.776 71.2663 227.776 71.098L197.338 5.31718C197.084 4.72835 197.169 4.05539 197.592 3.55068L197.93 3.29831C198.522 2.96183 199.198 2.87773 199.705 3.21421L264.133 38.7123C264.302 38.7964 264.387 38.8805 264.556 39.0488C264.64 39.217 264.809 39.3011 264.809 39.4694L295.248 105.25C295.501 105.839 295.417 106.512 294.994 107.017L294.91 107.101C294.318 107.69 293.472 107.774 292.88 107.437L284.341 102.727L281.297 100.96Z" stroke="#364454" stroke-width="5" stroke-miterlimit="10"/>
<path d="M351.05 287.675V113.875H381.575V135.325C386.342 127.625 392.483 121.667 400 117.45C407.7 113.233 415.858 111.125 424.475 111.125C443.175 111.125 458.483 118 470.4 131.75C482.5 145.317 488.55 162.092 488.55 182.075C488.55 201.875 482.5 218.65 470.4 232.4C458.483 245.967 443.175 252.75 424.475 252.75C415.675 252.75 407.517 250.733 400 246.7C392.483 242.483 386.342 236.525 381.575 228.825V287.675H351.05ZM392.025 152.375C385.058 160.258 381.575 170.158 381.575 182.075C381.575 193.992 385.058 203.892 392.025 211.775C399.175 219.475 408.25 223.325 419.25 223.325C430.433 223.325 439.6 219.475 446.75 211.775C453.9 203.892 457.475 193.992 457.475 182.075C457.475 170.158 453.9 160.258 446.75 152.375C439.6 144.492 430.433 140.55 419.25 140.55C408.25 140.55 399.175 144.492 392.025 152.375ZM508.799 182.075C508.799 162.458 515.857 145.775 529.974 132.025C544.091 118.092 561.141 111.125 581.124 111.125C601.107 111.125 618.157 118.092 632.274 132.025C646.391 145.775 653.449 162.458 653.449 182.075C653.449 201.508 646.391 218.192 632.274 232.125C618.157 245.875 601.107 252.75 581.124 252.75C561.141 252.75 544.091 245.875 529.974 232.125C515.857 218.192 508.799 201.508 508.799 182.075ZM539.874 182.075C539.874 193.625 543.907 203.433 551.974 211.5C560.041 219.383 569.757 223.325 581.124 223.325C592.491 223.325 602.207 219.383 610.274 211.5C618.341 203.433 622.374 193.625 622.374 182.075C622.374 170.708 618.341 160.992 610.274 152.925C602.207 144.675 592.491 140.55 581.124 140.55C569.757 140.55 560.041 144.675 551.974 152.925C543.907 160.992 539.874 170.708 539.874 182.075ZM673.692 182.075C673.692 162.458 680.75 145.775 694.867 132.025C708.983 118.092 726.033 111.125 746.017 111.125C766 111.125 783.05 118.092 797.167 132.025C811.283 145.775 818.342 162.458 818.342 182.075C818.342 201.508 811.283 218.192 797.167 232.125C783.05 245.875 766 252.75 746.017 252.75C726.033 252.75 708.983 245.875 694.867 232.125C680.75 218.192 673.692 201.508 673.692 182.075ZM704.767 182.075C704.767 193.625 708.8 203.433 716.867 211.5C724.933 219.383 734.65 223.325 746.017 223.325C757.383 223.325 767.1 219.383 775.167 211.5C783.233 203.433 787.267 193.625 787.267 182.075C787.267 170.708 783.233 160.992 775.167 152.925C767.1 144.675 757.383 140.55 746.017 140.55C734.65 140.55 724.933 144.675 716.867 152.925C708.8 160.992 704.767 170.708 704.767 182.075ZM842.709 193.9V113.875H873.234V188.4C873.234 200.133 875.434 208.933 879.834 214.8C884.234 220.483 891.659 223.325 902.109 223.325C912.376 223.325 920.443 219.933 926.309 213.15C932.176 206.367 935.109 196.65 935.109 184V113.875H965.634V250H935.109V231.025C925.026 245.508 911.001 252.75 893.034 252.75C875.434 252.75 862.601 247.158 854.534 235.975C846.651 224.792 842.709 210.767 842.709 193.9ZM999.61 250V69.05H1030.13V250H999.61ZM1064.33 287.675V113.875H1094.86V135.325C1099.62 127.625 1105.76 121.667 1113.28 117.45C1120.98 113.233 1129.14 111.125 1137.76 111.125C1156.46 111.125 1171.76 118 1183.68 131.75C1195.78 145.317 1201.83 162.092 1201.83 182.075C1201.83 201.875 1195.78 218.65 1183.68 232.4C1171.76 245.967 1156.46 252.75 1137.76 252.75C1128.96 252.75 1120.8 250.733 1113.28 246.7C1105.76 242.483 1099.62 236.525 1094.86 228.825V287.675H1064.33ZM1105.31 152.375C1098.34 160.258 1094.86 170.158 1094.86 182.075C1094.86 193.992 1098.34 203.892 1105.31 211.775C1112.46 219.475 1121.53 223.325 1132.53 223.325C1143.71 223.325 1152.88 219.475 1160.03 211.775C1167.18 203.892 1170.76 193.992 1170.76 182.075C1170.76 170.158 1167.18 160.258 1160.03 152.375C1152.88 144.492 1143.71 140.55 1132.53 140.55C1121.53 140.55 1112.46 144.492 1105.31 152.375Z" fill="#364454"/>
</svg>
