<svg width="365" height="489" viewBox="0 0 365 489" fill="none" xmlns="http://www.w3.org/2000/svg">
<path d="M21.2313 479.769V416.25H32.3873V424.09C34.1294 421.275 36.374 419.098 39.1211 417.557C41.9352 416.016 44.9168 415.245 48.066 415.245C54.9003 415.245 60.495 417.758 64.8502 422.783C69.2724 427.741 71.4835 433.872 71.4835 441.175C71.4835 448.412 69.2724 454.542 64.8502 459.568C60.495 464.526 54.9003 467.005 48.066 467.005C44.8498 467.005 41.8682 466.268 39.1211 464.794C36.374 463.253 34.1294 461.075 32.3873 458.261V479.769H21.2313ZM36.2065 430.321C33.6603 433.202 32.3873 436.82 32.3873 441.175C32.3873 445.531 33.6603 449.149 36.2065 452.03C38.8196 454.844 42.1362 456.251 46.1564 456.251C50.2436 456.251 53.5937 454.844 56.2068 452.03C58.82 449.149 60.1265 445.531 60.1265 441.175C60.1265 436.82 58.82 433.202 56.2068 430.321C53.5937 427.44 50.2436 425.999 46.1564 425.999C42.1362 425.999 38.8196 427.44 36.2065 430.321ZM78.884 441.175C78.884 434.006 81.4636 427.909 86.6228 422.884C91.782 417.791 98.0133 415.245 105.317 415.245C112.62 415.245 118.851 417.791 124.01 422.884C129.17 427.909 131.749 434.006 131.749 441.175C131.749 448.278 129.17 454.375 124.01 459.467C118.851 464.492 112.62 467.005 105.317 467.005C98.0133 467.005 91.782 464.492 86.6228 459.467C81.4636 454.375 78.884 448.278 78.884 441.175ZM90.241 441.175C90.241 445.397 91.715 448.981 94.6632 451.929C97.6113 454.81 101.162 456.251 105.317 456.251C109.471 456.251 113.022 454.81 115.97 451.929C118.918 448.981 120.392 445.397 120.392 441.175C120.392 437.021 118.918 433.47 115.97 430.522C113.022 427.507 109.471 425.999 105.317 425.999C101.162 425.999 97.6113 427.507 94.6632 430.522C91.715 433.47 90.241 437.021 90.241 441.175ZM139.147 441.175C139.147 434.006 141.727 427.909 146.886 422.884C152.045 417.791 158.277 415.245 165.58 415.245C172.883 415.245 179.115 417.791 184.274 422.884C189.433 427.909 192.013 434.006 192.013 441.175C192.013 448.278 189.433 454.375 184.274 459.467C179.115 464.492 172.883 467.005 165.58 467.005C158.277 467.005 152.045 464.492 146.886 459.467C141.727 454.375 139.147 448.278 139.147 441.175ZM150.504 441.175C150.504 445.397 151.978 448.981 154.927 451.929C157.875 454.81 161.426 456.251 165.58 456.251C169.734 456.251 173.285 454.81 176.234 451.929C179.182 448.981 180.656 445.397 180.656 441.175C180.656 437.021 179.182 433.47 176.234 430.522C173.285 427.507 169.734 425.999 165.58 425.999C161.426 425.999 157.875 427.507 154.927 430.522C151.978 433.47 150.504 437.021 150.504 441.175ZM200.918 445.497V416.25H212.074V443.487C212.074 447.775 212.878 450.991 214.487 453.135C216.095 455.213 218.808 456.251 222.627 456.251C226.38 456.251 229.328 455.012 231.472 452.532C233.616 450.053 234.688 446.502 234.688 441.879V416.25H245.844V466H234.688V459.065C231.003 464.358 225.877 467.005 219.311 467.005C212.878 467.005 208.188 464.961 205.24 460.874C202.359 456.787 200.918 451.661 200.918 445.497ZM258.261 466V399.868H269.417V466H258.261ZM281.915 479.769V416.25H293.071V424.09C294.813 421.275 297.058 419.098 299.805 417.557C302.619 416.016 305.6 415.245 308.75 415.245C315.584 415.245 321.179 417.758 325.534 422.783C329.956 427.741 332.167 433.872 332.167 441.175C332.167 448.412 329.956 454.542 325.534 459.568C321.179 464.526 315.584 467.005 308.75 467.005C305.533 467.005 302.552 466.268 299.805 464.794C297.058 463.253 294.813 461.075 293.071 458.261V479.769H281.915ZM296.89 430.321C294.344 433.202 293.071 436.82 293.071 441.175C293.071 445.531 294.344 449.149 296.89 452.03C299.503 454.844 302.82 456.251 306.84 456.251C310.927 456.251 314.277 454.844 316.89 452.03C319.504 449.149 320.81 445.531 320.81 441.175C320.81 436.82 319.504 433.202 316.89 430.321C314.277 427.44 310.927 425.999 306.84 425.999C302.82 425.999 299.503 427.44 296.89 430.321Z" fill="#010202"/>
<path d="M293.4 315C296.7 315.8 300 316 303.4 316.1C304.5 316.1 305.7 316.1 306.8 316.1C307.8 316.1 308.8 316.1 309.7 316.1H312.7C339.6 316.1 359.9 295.8 359.9 268.9C359.9 242 344.7 221.7 324.5 221.7C324.5 221.7 324.5 221.7 324.4 221.7C324.3 221.7 324.3 221.7 324.2 221.7C314.4 221.7 306.5 229.6 306.5 239.4C306.5 245.4 308.7 248.9 310.4 251.5C311.7 253.5 312.4 254.7 312.4 257.1C312.4 266.4 304.8 268.9 300.7 268.9C292.9 268.8 289.5 263.4 284.2 253.7C278.4 243.2 271.3 230.3 253.6 228V214.9C254.2 214.8 254.7 214.7 255.2 214.6C257.3 214.3 259.3 213.9 261.3 213.4C262.2 213.2 263.2 212.9 264.1 212.6C265.8 212.1 267.5 211.7 269.1 211.1C270.8 210.5 272.5 209.7 274.2 209C275 208.7 275.7 208.4 276.5 208C300.6 196.4 316.5 173.2 322.1 148C321.6 148 321.1 148.1 320.6 148.1C317 148.1 313.4 147.9 309.8 147.5C302.2 177.8 277.9 204 241.5 204H229.7V215.8H229.9H241.5V239.4H241.7H247.4C262.5 239.4 267.6 248.7 273.5 259.4C279 269.4 285.2 280.7 300.5 280.7H300.6H300.7C312.1 280.7 324.3 272.4 324.3 257.1C324.3 251.2 322.1 247.7 320.4 245.2C319.1 243.1 318.3 242 318.3 239.4C318.3 236.2 320.9 233.5 324.2 233.5C337.6 233.6 347.6 248.8 347.6 268.9C347.6 289.1 332.4 304.3 312.2 304.3C312.2 304.3 304.5 304.3 302.3 304.3C300.1 304.2 298 304 296.1 303.5C296 303.5 296 303.5 295.9 303.5L293.4 315ZM117.9 351.6C117.9 360.4 119.7 367.9 122.7 374.2C122.7 374.2 124.2 377.1 124.3 377.3C126.5 381.1 129.2 384.3 132.3 387.1C132.6 387.4 132.9 387.6 133.2 387.9C136.1 390.4 139.3 392.4 142.7 394C143.3 394.3 143.9 394.6 144.5 394.8C145.5 395.2 146.4 395.6 147.5 396C148.3 396.3 149.1 396.5 149.9 396.7C151.2 397.1 152.4 397.4 153.7 397.7C155 398 156.2 398.2 157.5 398.4C158.2 398.5 158.9 398.6 159.6 398.6C161.3 398.8 163.1 398.9 164.8 398.9C164.9 398.9 164.9 398.9 165 398.9C165.1 398.9 165.1 398.9 165.2 398.9C175 398.9 182.9 391 182.9 381.2C182.9 373.2 177.6 368.8 173.3 365.2C168.8 361.4 165.2 358.5 165.2 351.7C165.2 346.3 169.8 340.5 175.1 333.8C182.8 324 192.2 312.1 194.3 294.3C197.7 295.5 202.3 297.5 205.1 301.1C206.5 302.9 210 308.1 211.8 318L212.8 327C212.9 327.9 212.9 328.7 212.9 329.6C212.9 333.7 212.8 343.3 212.8 343.3C215.8 388.8 245.5 397.6 272.2 398.8C273.7 398.9 275.3 398.9 276.8 398.9C286.6 399 295 391.4 295.2 381.7C295.5 371.7 287.4 363.5 277.5 363.5C264.4 363.5 259.8 341.2 259.8 322.2C259.8 297.7 251.2 251.4 218.5 251.4C218.4 251.4 218.4 251.4 218.3 251.4V263.2C242.4 263.2 247.8 306.9 247.8 322.2C247.8 355.4 258.8 375.2 277.2 375.3C280.4 375.3 283.1 377.8 283.3 380.9C283.5 384.3 280.8 387.1 277.4 387.1C244 387 226.8 371.5 224.7 339.5C225.1 334 226.4 305.1 213.8 292.5C213.8 292.5 207.5 284 189.9 280.9L183.2 280H183V286.7C183 295 178.2 308.3 178.2 308.3C174.9 315.2 170.3 321.1 166.1 326.5C159.7 334.6 153.7 342.3 153.7 351.7C153.7 357.1 156.9 364.6 156.9 364.6C159.4 368.9 162.9 371.9 165.8 374.3C170.4 378.1 171.7 379.5 171 382.6C170.4 385.3 168 387.1 165.3 387.1C165.3 387.1 130.1 384.8 130.1 351.7C130.1 335.3 135.6 324.4 141.3 312.8C147.4 300.6 153.7 287.9 153.7 269.1H141.9C141.9 285.2 136.5 296.1 130.8 307.6C124.2 319.7 117.9 332.5 117.9 351.6ZM188.7 174.5C195.2 174.5 200.5 169.2 200.5 162.7C200.5 156.2 195.2 150.9 188.7 150.9H188.6H188.5C182 150.9 176.7 156.2 176.7 162.7C176.7 169.2 182 174.5 188.5 174.5H188.6H188.7ZM153.3 174.5C159.8 174.5 165.1 169.2 165.1 162.7C165.1 156.2 159.8 150.9 153.3 150.9H153.2H153.1C146.6 150.9 141.3 156.2 141.3 162.7C141.3 169.2 146.6 174.5 153.1 174.5H153.2C153.2 174.5 153.2 174.5 153.3 174.5ZM5.5 339.8C5.5 382.8 45.3 398.8 70.4 398.8C70.5 398.8 70.5 398.8 70.6 398.8C80.4 398.8 88.3 390.9 88.3 381.1C88.3 368.7 78.5 362.9 70.6 358.3C63.3 354 58.8 351.1 58.8 345.7C58.8 345 61.1 338.2 73.8 332.5C73.8 332.5 82.1 328.5 89.9 325.6L86.8 314.2C79.2 316.3 65.1 321 55.9 329C50.1 333.1 46.8 337.8 46.8 345.6C46.8 358 56.6 363.8 64.5 368.4C71.8 372.7 76.3 375.6 76.3 381C76.3 384.3 73.7 386.9 70.4 386.9C55.5 386.8 17.5 378.3 17.5 339.7C17.5 311.1 42.3 302 68.5 292.4C94.4 282.9 123.7 272.1 123.7 239.4H112C112 263.9 90 272 64.5 281.4C62.2 282.2 59.9 283.1 57.6 284V283.9C31.8 293.6 5.5 306 5.5 339.8ZM225.7 45.4004C123.8 55.0004 114.7 155.9 111.8 191.6C110.1 194.9 95.8 204 76.3 204C74.9 204 73.6 204 72.4 203.9C52.9 202.9 52.9 195.2 52.9 192.2C52.9 184.1 60.1 181 71.9 176.9C81.8 173.5 94.2 169.2 94.2 156.8C94.2 147 86.3 139.1 76.5 139.1H76.4H76.3C31.9 139.1 5.5 159 5.5 192.2C5.5 230.2 26.9 246 48.6 252.5C48.6 252.5 48.6 252.5 48.6 252.4C64.1 257.1 79.8 257.1 88.3 257.1V245.3C55.3 245.3 17.5 239.3 17.5 192.2C17.5 166 39 150.9 76.4 150.9C79.6 150.9 82.3 153.6 82.3 156.8C82.3 160.5 76.9 162.7 67.9 165.8C56.5 169.7 40.9 175.2 40.9 192.3C40.9 203.1 47 215.9 76.3 215.9C76.4 215.9 76.4 215.9 76.5 215.9C99.9 215.9 123.7 204 123.7 192.8C128.3 138 143.9 66.3004 224.5 57.4004C224.6 53.3004 225.1 49.3004 225.7 45.4004Z" fill="#EF7C68"/>
<path d="M254.5 112.8C241.1 98.4 233.6 80.2 234.2 62.9C234.2 62.8 234.2 62.6 234.3 62.5L234.4 62.1L234.6 61.8C234.7 61.7 234.7 61.6 234.8 61.5L248.2 49L249.9 52.8L238 63.9V64.6C238 80.4 245 97 257.3 110.2L257.5 110.5L257.8 110.8C270.1 124 286.2 132.1 301.9 133.2H302.6L315.6 121L319.2 123L304.6 136.6C304.5 136.7 304.4 136.8 304.3 136.8L304 137C303.9 137 303.8 137.1 303.7 137.1L303.5 137.2C303.5 137.2 303.3 137.2 303.2 137.2C285.9 136.5 268.3 127.8 254.8 113.4L254.5 113.1V112.8Z" fill="#010202" stroke="black" stroke-miterlimit="10"/>
<path d="M254.5 112.8C241.1 98.4 233.6 80.2 234.2 62.9C234.2 62.8 234.2 62.6 234.3 62.5L234.4 62.1L234.6 61.8C234.7 61.7 234.7 61.6 234.8 61.5L248.2 49L249.9 52.8L238 63.9V64.6C238 80.4 245 97 257.3 110.2L257.5 110.5L257.8 110.8C270.1 124 286.2 132.1 301.9 133.2H302.6L315.6 121L319.2 123L304.6 136.6C304.5 136.7 304.4 136.8 304.3 136.8L304 137C303.9 137 303.8 137.1 303.7 137.1L303.5 137.2C303.5 137.2 303.3 137.2 303.2 137.2C285.9 136.5 268.3 127.8 254.8 113.4L254.5 113.1V112.8Z" fill="#010202" stroke="black" stroke-width="5" stroke-miterlimit="10"/>
<path d="M246.9 13.4999L280.1 85.7L350.6 124.7L317.4 52.5L246.9 13.4999ZM340.2 123.4L277.7 88.7999C277.5 88.6999 277.4 88.5999 277.2 88.3999C277.1 88.1999 276.9 88.0999 276.9 87.8999L240.9 9.69996C240.6 8.99996 240.7 8.19996 241.2 7.59996L241.6 7.29994C242.3 6.89994 243.1 6.79996 243.7 7.19996L319.9 49.3999C320.1 49.4999 320.2 49.5999 320.4 49.7999C320.5 49.9999 320.7 50.0999 320.7 50.2999L356.7 128.5C357 129.2 356.9 130 356.4 130.6L356.3 130.7C355.6 131.4 354.6 131.5 353.9 131.1L343.8 125.5L340.2 123.4Z" fill="#010202" stroke="black" stroke-miterlimit="10"/>
<path d="M246.9 13.4999L280.1 85.7L350.6 124.7L317.4 52.5L246.9 13.4999ZM340.2 123.4L277.7 88.7999C277.5 88.6999 277.4 88.5999 277.2 88.3999C277.1 88.1999 276.9 88.0999 276.9 87.8999L240.9 9.69996C240.6 8.99996 240.7 8.19996 241.2 7.59996L241.6 7.29994C242.3 6.89994 243.1 6.79996 243.7 7.19996L319.9 49.3999C320.1 49.4999 320.2 49.5999 320.4 49.7999C320.5 49.9999 320.7 50.0999 320.7 50.2999L356.7 128.5C357 129.2 356.9 130 356.4 130.6L356.3 130.7C355.6 131.4 354.6 131.5 353.9 131.1L343.8 125.5L340.2 123.4Z" fill="#010202" stroke="black" stroke-width="5" stroke-miterlimit="10"/>
</svg>
